<svg width="52" height="45" viewBox="0 0 52 45" fill="none" xmlns="http://www.w3.org/2000/svg">
<path d="M25.9999 41.25C14.0337 41.25 4.33325 32.8553 4.33325 22.5C4.33325 12.1447 14.0337 3.75 25.9999 3.75C37.9661 3.75 47.6666 12.1447 47.6666 22.5C47.6535 32.8506 37.9606 41.2386 25.9999 41.25ZM25.9999 7.5C16.4783 7.50209 8.74125 14.1504 8.67144 22.39C8.60163 30.6297 16.2252 37.3754 25.7458 37.4983C35.2663 37.6212 43.119 31.0753 43.3333 22.8375V26.1806V22.5C43.3225 14.2196 35.5684 7.5093 25.9999 7.5ZM29.1416 31.6875L18.4166 22.4062L29.1416 13.125L32.2053 15.7762L24.5439 22.4062L32.2031 29.0363L29.1438 31.6875H29.1416Z" fill="#E2001D"/>
</svg>
