<svg width="156" height="36" viewBox="0 0 156 36" fill="none" xmlns="http://www.w3.org/2000/svg">
<path d="M18.3429 26.2645L8.82709 17.4999L18.3429 8.73535L20.5833 10.7974L13.3 17.5058L20.5833 24.2141L18.3445 26.2645H18.3429ZM26.9325 26.2645L17.4151 17.4999L26.9325 8.73535L29.1713 10.7974L21.888 17.5058L29.1713 24.2141L26.9341 26.2645H26.9325Z" fill="black"/>
<path d="M136.711 8.77569L146.209 17.5598L136.675 26.3048L134.439 24.2382L141.736 17.5448L134.466 10.8215L136.709 8.77569L136.711 8.77569ZM128.121 8.75808L137.621 17.5422L128.085 26.2872L125.851 24.2205L133.148 17.5272L125.878 10.8039L128.12 8.75808L128.121 8.75808Z" fill="black"/>
</svg>
