<svg width="44" height="38" viewBox="0 0 44 38" fill="none" xmlns="http://www.w3.org/2000/svg">
<path d="M21.6664 0.0827265C33.6325 0.0370537 43.365 8.39463 43.4045 18.7499C43.444 29.1052 33.7756 37.5368 21.8096 37.5825C9.84348 37.6281 0.111012 29.2706 0.0714879 18.9153C0.0451153 8.56469 9.70584 0.139746 21.6664 0.0827265ZM21.7953 33.8325C31.3168 33.7941 39.0284 27.1163 39.0668 18.8764C39.1051 10.6366 31.4559 3.91997 21.9349 3.8334C12.4139 3.74683 4.5863 10.3227 4.4035 18.5612L4.39074 15.2181L4.40479 18.8987C4.44714 27.1791 12.2268 33.8597 21.7953 33.8325ZM18.5613 9.65715L29.3216 18.8974L18.6321 28.2195L15.5584 25.58L23.1943 18.9208L15.5099 12.3201L18.5591 9.65715L18.5613 9.65715Z" fill="#E2001D"/>
</svg>
