<svg width="22" height="24" viewBox="0 0 22 24" fill="none" xmlns="http://www.w3.org/2000/svg">
<path d="M12.4697 10.4984L11.5516 10.1021C11.3926 10.4706 11.4692 10.8985 11.7463 11.1888L12.4697 10.4984ZM4.41317 2.23676L3.96495 1.34283C3.68146 1.48498 3.48219 1.75317 3.42792 2.06563C3.37365 2.37809 3.47081 2.69777 3.68977 2.92718L4.41317 2.23676ZM8.7782 6.81027L9.5016 7.5007C9.8704 7.11429 9.8704 6.50626 9.5016 6.11985L8.7782 6.81027ZM5.94976 9.7738L5.22636 10.4642C5.41506 10.6619 5.67646 10.7738 5.94976 10.7738C6.22307 10.7738 6.48447 10.6619 6.67317 10.4642L5.94976 9.7738ZM1.58474 5.20029L2.30814 4.50987C2.07907 4.26985 1.74587 4.15908 1.4187 4.21417C1.09152 4.26926 0.812968 4.48304 0.675128 4.78484L1.58474 5.20029ZM8.74293 13.9279L9.46634 13.2375C9.20257 12.9611 8.80438 12.8592 8.44026 12.9748L8.74293 13.9279ZM16.1192 21.6565L16.8426 20.9661H16.8426L16.1192 21.6565ZM18.8809 21.6565L18.1575 20.9661L18.8809 21.6565ZM19.6192 20.8829L20.3426 21.5734H20.3426L19.6192 20.8829ZM19.6192 17.9893L20.3426 17.2989L19.6192 17.9893ZM12 7.91069C12 8.69525 11.8389 9.43657 11.5516 10.1021L13.3879 10.8947C13.7819 9.98183 14 8.97104 14 7.91069H12ZM7 2.62408C9.71796 2.62408 12 4.94649 12 7.91069H14C14 3.93089 10.9095 0.624084 7 0.624084V2.62408ZM4.8614 3.13068C5.50985 2.80553 6.23408 2.62408 7 2.62408V0.624084C5.91334 0.624084 4.88303 0.882496 3.96495 1.34283L4.8614 3.13068ZM9.5016 6.11985L5.13658 1.54633L3.68977 2.92718L8.05479 7.5007L9.5016 6.11985ZM6.67317 10.4642L9.5016 7.5007L8.0548 6.11985L5.22636 9.08338L6.67317 10.4642ZM0.861338 5.89072L5.22636 10.4642L6.67317 9.08338L2.30814 4.50987L0.861338 5.89072ZM2 7.91069C2 7.0853 2.17833 6.30766 2.49436 5.61575L0.675128 4.78484C0.241477 5.73429 0 6.795 0 7.91069H2ZM7 13.1973C4.28204 13.1973 2 10.8749 2 7.91069H0C0 11.8905 3.09055 15.1973 7 15.1973V13.1973ZM8.44026 12.9748C7.98508 13.1194 7.50192 13.1973 7 13.1973V15.1973C7.71042 15.1973 8.39763 15.0868 9.04561 14.881L8.44026 12.9748ZM16.8426 20.9661L9.46634 13.2375L8.01953 14.6184L15.3958 22.3469L16.8426 20.9661ZM18.1575 20.9661C17.7888 21.3524 17.2113 21.3524 16.8426 20.9661L15.3958 22.3469C16.5524 23.5587 18.4477 23.5587 19.6043 22.3469L18.1575 20.9661ZM18.8958 20.1925L18.1575 20.9661L19.6043 22.3469L20.3426 21.5734L18.8958 20.1925ZM18.8958 18.6797C19.2896 19.0924 19.2896 19.7799 18.8958 20.1925L20.3426 21.5734C21.474 20.3879 21.474 18.4844 20.3426 17.2989L18.8958 18.6797ZM11.7463 11.1888L18.8958 18.6797L20.3426 17.2989L13.1932 9.80797L11.7463 11.1888Z" fill="#E2001D"/>
</svg>
