<svg width="19" height="23" viewBox="0 0 19 23" fill="none" xmlns="http://www.w3.org/2000/svg">
<path d="M2.08333 22.1428H0V21.0078C0.00459233 16.6216 3.26649 13.0672 7.29167 13.0622H11.4583C15.4835 13.0672 18.7454 16.6216 18.75 21.0078V22.1428H16.6667V21.0078C16.6632 17.8749 14.3334 15.3361 11.4583 15.3324H7.29167C4.41661 15.3361 2.08678 17.8749 2.08333 21.0078V22.1428ZM9.375 11.9271C6.49852 11.9271 4.16667 9.38614 4.16667 6.2517C4.16667 3.11726 6.49852 0.576294 9.375 0.576294C12.2515 0.576294 14.5833 3.11726 14.5833 6.2517C14.5799 9.38459 12.2501 11.9234 9.375 11.9271ZM9.375 2.84646C7.64911 2.84646 6.25 4.37104 6.25 6.2517C6.25 8.13237 7.64911 9.65695 9.375 9.65695C11.1009 9.65695 12.5 8.13237 12.5 6.2517C12.5 4.37104 11.1009 2.84646 9.375 2.84646Z" fill="#E2001D"/>
</svg>
